Patient4_TMGait_0pt7_01_left_17_EMG.mot
version=1
nRows=30
nColumns=33
inDegrees=no
endheader
time	1LAddLong	2LGlutMax	3LGlutMed	4LIliopsoas	5LSemiMemb	6LBicFemLong	7LRecFem	8LVastMed	9LVastLat	10LGasMed	11LTibAnt	12lTibPost	13LPeroneusLong	14LSol	15LExtDigLong	16LFlexDigLong	17RAddLong	18RGlutMax	19RGlutMed	20RIliopsoas	21RSemiMemb	22RBicFemLong	23RRecFem	24RVastMed	25RVastLat	26RGasMed	27RTibAnt	28RTibPost	29RPeroneusLong	30RSol	31RExtDigLong	32RFlexDigLong
20.703	0.002289	0.4657	-0.013123	0.009918	-0.019226	-0.016174	-0.10208	0.009003	0.11292	0.036926	0.019073	0.001831	0.025787	0.020294	-0.001984	0.002289	0.009918	-0.31921	0.065155	0.12283	0.03006	-0.074158	0.17639	0.27039	-0.16403	-0.011597	0.003967	-0.00473	-0.35111	0.073547	-0.001221	-0.015106
20.704	-0.001984	0.43396	-0.00824	-0.005188	-0.068054	-0.028076	-0.068817	0.006714	0.10849	-0.000916	0.009308	-0.007782	0.003967	-0.018158	0.001221	0.000305	-0.000153	-0.27741	-0.11368	0.078888	0.036774	-0.032349	0.3035	0.19196	-0.42267	-0.02121	0.5513	-0.000916	-0.022736	0.062714	-0.005798	-0.011292
20.705	-0.001221	0.41412	-0.058441	0.003967	-0.10376	-0.082855	-0.030518	0.005646	0.12054	0.014801	0.004578	-0.003357	0.029144	-0.067291	-0.00061	-0.006409	-0.000916	-0.32135	-0.27283	0.040436	0.049286	-0.047455	0.14008	0.1265	-0.69656	-0.018311	0.83038	-0.001221	0.9256	-0.055695	-0.001678	-0.020752
20.706	0.007935	0.4361	-0.10284	0.011139	-0.044861	-0.098267	0.01297	0.006866	0.14297	-0.018005	-0.001068	-0.002594	0.10086	-0.13825	-0.001373	-0.010071	0.000763	-0.28183	0.27512	0.021362	0.046234	-0.067596	-0.021057	0.059967	-0.63431	0.00061	0.92422	0.001831	2.0377	-0.28717	0.005646	-0.015259
20.707	0.028076	0.41336	-0.14358	0.005035	0.035095	-0.092773	0.036621	0.00061	0.14313	-0.035095	0.003204	-0.009308	0.11643	-0.21454	0.004425	-0.010223	0.006409	-0.25787	0.51209	0.012054	0.032196	-0.025024	0.016632	-0.009308	-0.19699	0.014648	0.50705	0.00061	-0.33463	-0.45548	-0.001678	-0.007477
20.708	0.013275	0.39398	-0.16693	0.003204	0.025177	-0.071869	0.067902	0.001678	0.11627	-0.058289	0.002747	-0.008698	0.00824	-0.2388	-0.000305	-0.01236	-0.008392	-0.24124	-0.14633	-0.002289	0.033417	-0.059204	0.26306	-0.017395	-0.041962	0.022736	-0.45181	0.004425	-1.8881	-0.51819	-0.001526	-0.004578
20.709	0.020142	0.36987	-0.18127	0.006866	0.024872	-0.077057	0.11643	-0.001221	0.091248	-0.065918	-0.003662	-0.006256	-0.006104	-0.18082	-0.000305	-0.007019	-0.000763	-0.31952	-0.34866	0.072327	0.039825	-0.028381	0.55725	0.058594	-0.11536	0.00351	-0.22598	-0.001984	-0.58777	-0.39551	-0.005798	-0.016022
20.71	0.015717	0.34302	-0.17624	0.000153	0.013733	-0.10666	0.11597	-0.001221	0.058441	-0.059967	0.001678	-0.015869	0.014343	-0.16235	-0.007935	-0.050201	-0.013733	-0.35919	-0.50903	0.071106	0.048981	-0.010376	0.33905	0.10056	-0.22888	-0.017242	-0.20081	-0.000305	0.47348	-0.31921	-0.00351	-0.020905
20.711	0.003204	0.30319	0.004272	-0.004883	0.043182	-0.1062	0.1532	-0.000458	-0.015106	-0.038757	0.002289	-0.010376	0.018158	-0.103	-0.007629	-0.013885	-0.016937	-0.27557	-0.29114	0.069122	0.041962	-0.042725	-0.24475	0.11322	-0.28412	-0.006104	-0.327	0.002747	0.6076	-0.36545	0.000305	-0.016174
20.712	0.002289	0.25848	0.015564	-0.005493	0.042877	-0.05249	0.17868	0.009003	-0.066833	-0.030975	0.00351	-0.003357	0.017395	0.006256	-0.000763	-0.00946	-0.016022	-0.23819	0.2652	0.068359	0.037537	-0.029907	-0.83923	0.087433	-0.29205	0.009918	-0.9108	0.001526	-0.56839	-0.44434	-0.004578	0.001221
20.713	-0.003967	0.21423	-0.014648	0.006104	0.018768	-0.011139	0.19379	0.010986	-0.093384	-0.056152	0.009308	-0.009918	0.016479	0.057526	0.001831	-0.00351	0.00473	-0.16129	0.59479	-0.009003	0.024719	-0.065002	-0.7692	0.18951	0.04776	0.026855	-0.10788	0.005798	-1.403	-0.23911	-0.008392	0
20.714	0.002289	0.18433	-0.036163	0.010986	0.00412	-0.020142	0.19409	0.008087	-0.11948	-0.073547	0.008087	-0.020905	0.027924	0.010223	-0.02182	-0.017853	0.033264	-0.20096	0.79056	-0.043793	0.01358	-0.11261	-0.5191	-0.027161	0.2594	0.016632	-0.11108	0	0.96573	-0.060425	-0.004883	0.001068
20.715	0.006866	0.10346	-0.085449	0.00946	-0.004425	-0.030212	0.2034	0.005646	-0.14481	-0.080261	-0.000763	-0.015869	0.027924	-0.029907	-0.022125	-0.003357	0.01236	-0.20859	0.1648	0.005188	0.015411	-0.10773	-0.27878	-0.6337	-0.054779	-0.00061	-0.63126	-0.006256	1.5422	0.1918	-0.001526	-0.003357
20.716	0.005035	0.076599	-0.097504	0.00061	0.006409	-0.047607	0.19836	0.006409	-0.15854	-0.079498	0.013428	-0.021973	0.031738	-0.06424	-0.012512	-0.007629	-0.003052	-0.18768	-0.72876	0.001221	0.026093	-0.055542	-0.28732	-0.52475	-0.17334	-0.007782	-0.41458	-0.006866	0.68146	0.28229	-0.007019	-0.003204
20.717	-0.00473	0.027924	-0.19196	-0.010681	0.022278	-0.00412	0.21133	0.006409	-0.15671	-0.080872	0.010376	-0.015564	0.000305	-0.068054	-0.010834	-0.005493	0.000916	-0.18219	-1.0847	-0.009003	0.028839	-0.066681	-0.24902	-0.28778	-0.11643	-0.021515	-0.006714	-0.002289	0.044861	0.4567	-0.006409	-0.003815
20.718	0.002899	0.005188	-0.31418	-0.003662	-0.006409	0.015717	0.20996	0.007019	-0.15991	-0.069275	0.007172	-0.011292	-0.040283	0.001984	0.001373	0.000153	-0.012817	-0.21042	-1.3472	-0.010529	0.04776	-0.060425	-0.34714	0.034485	0.2478	-0.020752	0.30945	-0.000305	-0.68573	0.42511	0.008087	-0.007019
20.719	0.007782	0.029755	-0.36362	-0.000916	-0.06134	0.009613	0.21576	0.039215	-0.13748	-0.04303	0.007477	-0.019379	-0.016174	0.018005	0.020905	-0.007172	0.001373	-0.20096	0.10254	-0.11719	0.036316	-0.070343	-0.27451	-0.088501	0.28656	-0.020142	0.080872	-0.000916	-0.77682	0.3038	-0.001526	-0.007935
20.72	0.001984	-0.004578	-0.1741	0.003052	-0.059204	-0.013123	0.1831	0.038147	-0.13763	-0.012817	0.000763	-0.018158	0.016327	-0.043335	-0.00061	-0.011749	0.025787	-0.17487	0.78186	-0.18662	0.02243	-0.056152	-0.20279	-0.49408	0.090179	-0.026245	-0.63507	-0.002289	-0.29587	0.36224	-0.003357	-0.003204
20.721	0.003357	-0.063324	0.033875	0.003204	0.020752	-0.009308	0.17441	0.013885	-0.11658	0.030212	0.006256	-0.016022	0.032654	-0.019073	-0.001373	-0.00473	0.002441	-0.15472	-0.14893	-0.12421	0.0383	-0.041199	-0.11459	-0.12024	0.14801	-0.029144	-0.88226	0.000916	0.059967	0.40924	0.001984	-0.009003
20.722	0.005646	-0.095062	0.14847	0.000305	0.071564	0.000763	0.16144	0.005951	-0.10513	0.071564	-0.003052	-0.012817	0.014648	0.095062	-0.02594	0.009918	-0.015564	-0.25101	-0.54794	-0.10681	0.042572	-0.043182	0.036163	0.24155	0.18768	-0.024261	-0.81314	0.000153	0.29114	0.21622	-0.006256	-0.009766
20.723	0.010834	-0.13626	0.14053	-0.002747	0.046692	0.051117	0.13886	0.007935	-0.0914	0.053253	-0.003204	-0.023956	0.010986	0.037689	-0.031891	0.049438	-0.001221	-0.12299	-0.048523	-0.022583	0.045166	-0.067291	-0.27374	0.3331	-0.025635	-0.004578	-0.3389	0.004425	0.71472	-0.024872	0	-0.009766
20.724	-0.00824	-0.14496	0.1294	-0.008698	0.012817	0.053101	0.11414	0.007477	-0.092163	0.03418	-0.003204	-0.019989	0.020599	-0.030823	-0.002136	-0.023651	0.028229	-0.1886	0.27557	0.026245	0.011444	-0.081787	-0.41626	0.35019	0.032654	0.01236	0.53802	0.003204	0.61356	-0.1593	-0.002747	-0.006104
20.725	-0.006866	-0.14587	0.058594	-0.007324	-0.023193	0.020752	0.087585	0.019989	-0.077667	0.020905	-0.007629	-0.018158	0.031281	-0.095825	0.2742	-0.31616	0.007782	-0.21851	0.13733	0.06897	0.025635	-0.061188	-0.4274	0.53116	0.25421	0.004883	1.1697	0	-0.054474	-0.1445	0.000916	-0.011597
20.726	-0.011444	-0.17868	-0.019531	-0.004883	-0.008392	0.008392	0.060577	0.007782	-0.062256	-0.006409	-0.023193	-0.018463	0.039368	-0.079803	-0.017395	-0.000916	0.023804	-0.2124	-0.12116	0.11383	0.025635	-0.04776	0.03952	0.40283	0.15243	-0.004578	1.2434	0.001678	-0.40451	-0.085449	-0.001831	-0.014648
20.727	-0.011292	-0.17853	-0.033112	-0.005493	0.018921	-0.019989	0.037231	0.006409	-0.054626	-0.018311	-0.011444	-0.014648	0.038757	-0.03418	0.17075	0.12573	0.044861	-0.1828	-0.057373	0.10193	0.009613	-0.029297	0.49194	0.18021	0.018768	0.005035	0.26962	0.001526	-0.18387	-0.029602	-0.005798	0.001831
20.728	0.008545	-0.18784	0.005341	0.001221	-0.035095	-0.02533	0.028534	0.007935	-0.036316	-0.025635	0.031891	-0.0177	0.030365	-0.092926	-0.23605	0.061798	0.04303	-0.18143	-0.31708	0.082703	0.010529	-0.061951	0.83176	-0.20523	-0.020752	0.010834	-0.62729	0.001678	-0.059052	-0.042419	-0.000458	-0.003662
20.729	0.012207	-0.19028	-0.043945	0.009918	-0.056305	-0.026245	0.007324	0.003204	-0.025177	-0.0354	0.030823	-0.011902	0.042419	-0.042572	-0.17487	0.016785	0.026398	-0.15854	-0.097961	0.032806	0.018005	-0.023956	0.61706	-0.44571	0.077362	-0.011902	-0.055237	-0.000763	-0.11139	0.12177	-0.003967	-0.011597
20.73	0.014343	-0.168	-0.10529	0.007019	-0.011139	-0.013123	-0.005493	-0.002441	-0.012054	-0.033417	0.014954	-0.015259	0.018921	-0.15289	-0.049286	0.007019	0.000763	-0.036316	0.19501	0.003357	0.037384	-0.014038	-0.019073	-0.47577	0.15182	-0.016022	0.34317	-0.000763	0.26657	0.23407	0.001678	-0.012817
20.731	0.020599	-0.1683	0.002441	0.000916	0.041504	-0.041199	-0.017395	-0.002136	0.00351	-0.040436	0.008087	-0.016174	0.011444	-0.25314	-0.12848	-0.00351	-0.014954	-0.055084	0.35065	0.049744	0.052185	-0.036163	-0.65674	-0.47989	0.27695	-0.012817	0.45914	-0.00061	0.49652	0.19531	-0.00061	-0.014496
20.732	0.023651	-0.19791	0.020752	-0.003967	0.002594	0.006866	-0.037231	-0.001221	0.016327	-0.046997	0.003357	-0.019379	0.022125	-0.23987	-0.11139	-0.0177	0.003052	-0.11856	0.25864	0.059357	0.03952	-0.032806	-0.39963	-0.33218	0.42145	-0.018463	0.71472	0.001984	0.37399	0.17883	-0.00351	-0.014648
